<svg width="40" height="40" viewBox="0 0 40 40" fill="none" xmlns="http://www.w3.org/2000/svg">
<path d="M36.8534 15.1679L28.5132 15.1593C27.1932 12.2749 25.7438 9.45494 24.1648 6.69925C23.8466 6.14413 23.0906 5.95297 22.5408 6.27445C21.9818 6.60133 21.7956 7.34005 22.115 7.89841C23.471 10.2677 24.732 12.687 25.8982 15.1564H25.4187L14.1075 15.1449C15.2739 12.6822 16.533 10.2669 17.885 7.89877C18.2032 7.34149 18.0156 6.59989 17.4591 6.27445C16.9025 5.94901 16.1544 6.14233 15.8351 6.70033C14.2626 9.44785 12.8158 12.2616 11.4946 15.1416L7.32795 15.1373L3.14656 15.133C1.61908 15.133 1.61656 17.505 3.14656 17.5068H4.462C4.4687 17.5479 4.47747 17.5886 4.48828 17.6289L8.77803 31.05C8.98131 31.6865 9.18459 32.3225 9.38787 32.958C9.4198 33.0561 9.46343 33.1501 9.51783 33.2377C9.68811 33.5887 10.0218 33.8541 10.5323 33.8548L27.1049 33.8807L29.4672 33.8843C30.0746 33.8843 30.4367 33.5095 30.5616 33.0563C30.6183 32.967 30.6637 32.8712 30.697 32.7708C32.1764 28.2159 33.6554 23.6608 35.134 19.1056C35.3039 18.5833 35.4736 18.0609 35.643 17.5381H36.8534C38.3808 17.5432 38.3834 15.1693 36.8534 15.1679Z" fill="white"/>
</svg>
